<svg xmlns="http://www.w3.org/2000/svg" viewBox="0 0 335.89 366.87"><defs><style>.cls-1{fill:#303030;opacity:0.4;}.cls-2{fill:#f7ec16;}.cls-3{fill:#231f20;}.cls-4{fill:#e1d819;}</style></defs><g id="shadow"><path class="cls-1" d="M408.12,73.67l-.05,0a31.3,31.3,0,0,0-4.6-2.21C405,72.15,406.58,72.89,408.12,73.67Z" transform="translate(-247.54 -13.48)"/><path class="cls-1" d="M510.51,328.66a4.74,4.74,0,0,1-1.37-1.68A74,74,0,0,1,504,312.56a55.76,55.76,0,0,1-6-10.2c-3.66-8.3-5.6-17.41-7-26.6-2.75-4.78-4-10.91-4.1-16.92-4.21-10.15-7.78-20.68-11.17-31.26-.65-2-1.28-4.06-1.91-6.09-4.83-2.69-9.05-6.85-12.83-11.3-8.49-10-14.87-22.06-22.73-32.69-10.44-14.14-22.78-26-33.21-40.19-8.95-12.16-14.21-27.21-22.83-39.57-.3-.44-.61-.86-.92-1.28C368.59,86.77,354.78,79,341.4,70.82L275.58,83.27c-7.62,8.68-18,16.25-26,24.82a4.67,4.67,0,0,1-.42,2c-.53,1.18-1,2.36-1.41,3.53.58,5.92.25,11.89.1,17.89,3,11.52,1,24.87,1,36.68,0,2.61-.07,5.23-.14,7.84.26,1.69.52,3.38.77,5.07a161.27,161.27,0,0,1,4.23,21.22c2.1,8.14,4.61,16.16,7,24.33a139.09,139.09,0,0,1,5.6,29.93c.79,3.87,1.49,7.77,2.05,11.68q.3,2.09.42,4.17a5.19,5.19,0,0,1,.57,2c2.39,29.11,5.8,57.77-2.13,86.06,0,5.25,1,10.23,3.93,14.44,3.83,5.47,11.6,5.94,19.23,5.18,5-2,10.07-3.95,15.26-5.56,1.59-.49,3.34-1,5.18-1.53a89.37,89.37,0,0,1,25.06-6.53,48.48,48.48,0,0,1,5-2.12c10.66-3.79,22.14-3.39,33.09-3.81l.86,0c9.76-2.32,20.46-4.62,30.9-5.48,1.81-.4,3.63-.81,5.43-1.26,7-1.74,14.57-3.62,21.84-3.91,5.93-2.17,12.28-2.88,18.61-3.59a254.24,254.24,0,0,1,26.31-1.7c1.26-.21,2.52-.42,3.77-.65,10.08-1.86,20-5.05,30-6.87A35.59,35.59,0,0,1,510.51,328.66Z" transform="translate(-247.54 -13.48)"/></g><g id="Layer_3" data-name="Layer 3"><path class="cls-2" d="M252.68,73.1A128.38,128.38,0,0,0,262,123.33a2.56,2.56,0,0,0,3.07,1.74,2.51,2.51,0,0,0,1.75-3.07,124.71,124.71,0,0,1-9.11-48.9c.05-3.22-5-3.22-5,0Z" transform="translate(-247.54 -13.48)"/><path class="cls-2" d="M278.29,124.74a181.47,181.47,0,0,0,36.42,43q2.91,2.51,5.92,4.89c2.21,1.74,4.55,4,7.61,3.23a2.57,2.57,0,0,0,1.74-3.07,84.3,84.3,0,0,0-7.18-23.47,2.53,2.53,0,0,0-3.42-.9,2.57,2.57,0,0,0-.9,3.42,80,80,0,0,1,6.68,22.28l1.75-3.08c-.35.09-1.37-.88-1.65-1.09l-2.59-2.05c-1.72-1.39-3.41-2.8-5.07-4.25q-5-4.33-9.66-9a176.92,176.92,0,0,1-17-19.93q-4.39-6-8.29-12.42c-1.68-2.74-6-.23-4.32,2.53Z" transform="translate(-247.54 -13.48)"/><path class="cls-2" d="M311.78,172.65c5.5-5.15,8.4-12.7,11.68-19.32q5.52-11.16,11-22.36a2.57,2.57,0,0,0-.9-3.42,2.52,2.52,0,0,0-3.42.89q-5.37,11-10.76,21.92c-1.71,3.46-3.39,6.95-5.19,10.37a30.51,30.51,0,0,1-5.92,8.39c-2.35,2.2,1.19,5.73,3.53,3.53Z" transform="translate(-247.54 -13.48)"/><path class="cls-2" d="M330.82,203.31l10.24-61.43a2.58,2.58,0,0,0-1.74-3.08,2.52,2.52,0,0,0-3.08,1.75L326,202a2.57,2.57,0,0,0,1.75,3.07,2.52,2.52,0,0,0,3.08-1.74Z" transform="translate(-247.54 -13.48)"/><path class="cls-2" d="M352.1,216.31l7.83-49.55q1.13-7,2.23-14.06a2.57,2.57,0,0,0-1.75-3.07,2.5,2.5,0,0,0-3.07,1.75q-3.93,24.76-7.84,49.55-1.11,7-2.23,14a2.59,2.59,0,0,0,1.75,3.08,2.54,2.54,0,0,0,3.08-1.75Z" transform="translate(-247.54 -13.48)"/><path class="cls-2" d="M374.93,201.68a550.93,550.93,0,0,0,3-56.71q0-8.07-.23-16.13c-.09-3.21-5.09-3.22-5,0a548.78,548.78,0,0,1-1.32,56.78q-.6,8-1.45,16.06a2.51,2.51,0,0,0,2.5,2.5,2.55,2.55,0,0,0,2.5-2.5Z" transform="translate(-247.54 -13.48)"/><path d="M289.72,171.75a71.56,71.56,0,0,1,7.44-8,49.22,49.22,0,0,1,8.58-6.71,2.41,2.41,0,0,1,1.17-.35,2,2,0,0,1,.55.33,10.4,10.4,0,0,1,1.87,2.7c1.39,2.5,2.82,5.74,5.85,6.54,3.25.86,5.4-1.55,6.54-4.26.93-2.2,1.32-4.12,4.06-4.11a19.53,19.53,0,0,1,4.16.61,41.64,41.64,0,0,0,5.55.89,33,33,0,0,0,11.44-1.12c4.13-1.16,7.89-3.37,12.08-4.37,3-.7,6.47-.55,8.69,1.77a2.53,2.53,0,0,0,4.18-1.11q3.15-10.46,5.71-21.1L373,134c2.52,3.41,5,6.82,7.54,10.22,1.21,1.62,2.7,3.18,4.94,2.63,1.68-.41,2.56-1.92,3.13-3.42.23-.61.4-1.24.6-1.87a2.16,2.16,0,0,1,.51-1,3.19,3.19,0,0,1,2.52-.59c2.76.42,4.49,3.86,5.76,6.18a2.52,2.52,0,0,0,4.32,0l6.52-12.57c.53-1,1-2,1.58-3,.24-.46.47-1.16,1-1.38a7.94,7.94,0,0,1,2.53,0,13.1,13.1,0,0,0,2.65-.36,14.17,14.17,0,0,0,10.25-16.12l-4.57,1.93,1.27,2.6c.92,1.91,4.13,1.45,4.57-.59a3,3,0,0,1,1.66-2.15,12.14,12.14,0,0,1,3.72-1.22c3.58-.7,7.5-1,11.22-1.42a2.57,2.57,0,0,0,2.5-2.5,2.52,2.52,0,0,0-2.5-2.5l-7.59.92a51.9,51.9,0,0,0-5.94.89c-3.49.86-7.09,2.85-7.89,6.65l4.57-.6-1.27-2.61a2.48,2.48,0,0,0-3.12-1A2.54,2.54,0,0,0,422,114a8.54,8.54,0,0,1-2.23,7.16,9.49,9.49,0,0,1-3.25,2.4,9.89,9.89,0,0,1-4.18.56,6.16,6.16,0,0,0-5.29,2.39,38.52,38.52,0,0,0-3,5.43L398,143.63h4.32c-1.64-3-3.55-6.18-6.71-7.75a8.45,8.45,0,0,0-9.21,1,8,8,0,0,0-2.14,3.86,10.72,10.72,0,0,0-.5,1.48c0,.43-.24.06.17,0a1.19,1.19,0,0,1,1.33.06.94.94,0,0,1-.26-.3,17.62,17.62,0,0,0-1.88-2.55l-1.89-2.56-3.91-5.3c-1.19-1.61-4-1.68-4.57.59q-2.56,10.64-5.71,21.1l4.17-1.1a12.65,12.65,0,0,0-9.54-3.58c-3.82.08-7.32,1.52-10.79,3a33.82,33.82,0,0,1-11.33,2.94,27.47,27.47,0,0,1-5.66-.24c-1.73-.27-3.42-.75-5.15-1-3.28-.52-6.93-.47-9.25,2.29a14.11,14.11,0,0,0-2.15,4.08,12,12,0,0,1-.56,1.24c-.12.23-.27.44-.4.67.08-.14,0,.05-.13.05.48,0,.19-.05,0-.2a5,5,0,0,1-1.16-1.52c-.71-1.16-1.3-2.38-2-3.55-1.49-2.46-3.66-4.77-6.79-4.54-2.3.17-4.15,1.65-5.94,3s-3.48,2.65-5.13,4.08a71.94,71.94,0,0,0-9.06,9.49,2.57,2.57,0,0,0,0,3.54,2.51,2.51,0,0,0,3.53,0Z" transform="translate(-247.54 -13.48)"/></g><g id="Layer_1" data-name="Layer 1"><path class="cls-3" d="M452.14,18.6l-2.71,1.73c-12.43,7.9-25,15.6-38,22.57-23.39,12.56-48.35,22.9-74.68,27.19-27.89,4.54-56.18,2.85-84.22.84l-1.63-.12a2.55,2.55,0,0,1-2.5-2.5A2.67,2.67,0,0,1,249.94,66a2,2,0,0,1,1-.17c15.9,1.14,31.82,2.24,47.77,2.19a225,225,0,0,0,41.78-3.63,208,208,0,0,0,37.82-11.31C403.45,43,426.79,28.88,449.56,14.32c0,0,0,0,.05,0C452.33,12.54,454.84,16.87,452.14,18.6Z" transform="translate(-247.54 -13.48)"/><path class="cls-3" d="M384,373.69a2.55,2.55,0,0,1-1-.31c-2.27-1.25-4.52-2.53-6.74-3.87a217.91,217.91,0,0,1-48.2-39.6,264,264,0,0,1-36.57-51.14,312.6,312.6,0,0,1-25.71-62,424.33,424.33,0,0,1-14.5-73.39,651.3,651.3,0,0,1-3.76-74.94,2.35,2.35,0,0,1,2.4-2.42,2.39,2.39,0,0,1,2.6,2.42v2.53c0,2.16,0,4.33,0,6.49a615.27,615.27,0,0,0,4.76,74.31,399.66,399.66,0,0,0,15.8,71.72,298.47,298.47,0,0,0,26.34,59.18,253.39,253.39,0,0,0,37.33,49.2A209.3,209.3,0,0,0,385.35,369l.19.11C388,370.43,386.36,374,384,373.69Z" transform="translate(-247.54 -13.48)"/><path class="cls-3" d="M582.18,267.86q-21.91,11.63-43.85,23.19c-26.09,13.8-52.16,27.65-78.06,41.79q-4.9,2.67-9.79,5.36c-3.23,1.78-6.58,3.44-9.65,5.47-5.63,3.74-11.31,7.4-16.83,11.31-1.45,1-2.9,2.08-4.33,3.14a45.49,45.49,0,0,1-4.33,3.15,82.82,82.82,0,0,1-10,4.8c-6.24,2.57-12.69,4.64-18.66,7.83a2.37,2.37,0,0,1-2.68-.21c-1.28-1-1.68-3.14.15-4.11l1.21-.63c6.52-3.29,13.51-5.43,20.19-8.35,1.81-.8,3.6-1.65,5.35-2.58a38.41,38.41,0,0,0,5.11-3.35q4.61-3.48,9.38-6.71c5.66-3.87,11.34-7.88,17.35-11.2q9.76-5.38,19.57-10.72Q481.83,315.4,501.46,305c24.66-13.15,49.39-26.15,74.08-39.23l4.12-2.18a2.55,2.55,0,0,1,1.32-.31C583.17,263.35,584.56,266.6,582.18,267.86Z" transform="translate(-247.54 -13.48)"/><path class="cls-2" d="M575.54,265.73c-24.69,13.08-49.42,26.08-74.08,39.23Q481.84,315.42,462.3,326q-9.8,5.32-19.57,10.72c-6,3.32-11.69,7.33-17.35,11.2q-4.77,3.24-9.38,6.71a38.41,38.41,0,0,1-5.11,3.35c-1.75.93-3.54,1.78-5.35,2.58-6.68,2.92-13.67,5.06-20.19,8.35a209.3,209.3,0,0,1-48.56-37.12,253.39,253.39,0,0,1-37.33-49.2,298.47,298.47,0,0,1-26.34-59.18,399.66,399.66,0,0,1-15.8-71.72,615.27,615.27,0,0,1-4.76-74.31c0-2.16,0-4.33,0-6.49,28,2,56.33,3.7,84.22-.84,26.33-4.29,51.29-14.63,74.68-27.19,13-7,25.56-14.67,38-22.57,2.18,19.12,4.24,38.26,6.72,57.34s5.6,38.12,11.27,56.52a180.48,180.48,0,0,0,10.43,26.54,168.27,168.27,0,0,0,15.4,25c5.93,8.1,12.35,15.81,18.83,23.47,5.92,7,11.85,14,18.06,20.8,12.05,13.14,25.45,25.55,41.42,33.77C572.87,264.48,574.2,265.12,575.54,265.73Z" transform="translate(-247.54 -13.48)"/><path class="cls-4" d="M376.66,355.74c-.78-6.66-1.84-13.24-3-19.84-2.43-13.45-5-26.91-6.16-40.56-3.9-47.51,3.48-96.57,16.87-142.15a368.51,368.51,0,0,1,25.59-64.6,351.83,351.83,0,0,1,17.88-30.77c5.91-9.12,12.11-18,17-27.75l-.18-1.61c-9.23,5.78-20.23,12.42-31.55,18.5C385.6,61.74,360.66,70.8,336.88,74.68a249.69,249.69,0,0,1-40.2,2.95c-13.33,0-26.87-.78-39.81-1.68V77a606.77,606.77,0,0,0,4.72,73.71,395.64,395.64,0,0,0,15.6,70.82,294.48,294.48,0,0,0,25.89,58.19A248.9,248.9,0,0,0,339.67,328,207.65,207.65,0,0,0,377,358.25Z" transform="translate(-247.54 -13.48)"/><path class="cls-3" d="M580.93,265.71a2.58,2.58,0,0,1-3.42.9l-2-.88c-1.34-.61-2.67-1.25-4-1.92-16-8.22-29.37-20.63-41.42-33.77-6.21-6.77-12.14-13.79-18.06-20.8-6.48-7.66-12.9-15.37-18.83-23.47a168.27,168.27,0,0,1-15.4-25,180.48,180.48,0,0,1-10.43-26.54c-5.67-18.4-8.79-37.46-11.27-56.52s-4.54-38.22-6.72-57.34c-.17-1.45-.33-2.9-.5-4.35a2,2,0,0,1,.63-1.66s0,0,.05,0a2.64,2.64,0,0,1,1.82-.8,2.58,2.58,0,0,1,2.5,2.5c.3,2.64.61,5.28.91,7.92,2.31,20,4.35,40,7.14,59.9,2.62,18.63,6.1,37.24,12.22,55.07a160.44,160.44,0,0,0,11.21,25.55,186.38,186.38,0,0,0,16.34,24.37c5.94,7.65,12.23,15,18.5,22.39,5.74,6.76,11.55,13.47,17.69,19.88,12.17,12.7,25.81,24.2,42.09,31.23a2,2,0,0,1,1,.95A2.75,2.75,0,0,1,580.93,265.71Z" transform="translate(-247.54 -13.48)"/></g><g id="todos"><path d="M282.48,158.69c3.22,0,3.23-5,0-5s-3.22,5,0,5Z" transform="translate(-247.54 -13.48)"/><path d="M279.67,156a1.16,1.16,0,0,1,.14.24l-.25-.6a1.89,1.89,0,0,1,.09.34l-.09-.66a1.34,1.34,0,0,1,0,.4l.09-.66a1.59,1.59,0,0,1-.1.39l.25-.59a1.75,1.75,0,0,1-.2.35l.39-.51a1.54,1.54,0,0,1-.25.26l.5-.39c-.16.11-.32.2-.48.33a2.56,2.56,0,0,0-.65.7,4.73,4.73,0,0,0-.25.62c0,.11-.08.55-.09.68a.28.28,0,0,0,0,.09c0,.14,0,.3.05.42a2.83,2.83,0,0,0,.07.42,3.81,3.81,0,0,0,.27.66l.06.1a4,4,0,0,0,.44.57l.07.07a5.06,5.06,0,0,0,.57.44l.1.06a3.55,3.55,0,0,0,1.35.43,5,5,0,0,0,.56.06,6.61,6.61,0,0,0,.88-.11l.24-.07a4.83,4.83,0,0,0,.81-.35,4.17,4.17,0,0,0,1.26-1.25,5.79,5.79,0,0,0,.56-1.18c.21-.54.31-1.11.53-1.65l-.26.6a2,2,0,0,1,.18-.32l-.39.51a.67.67,0,0,1,.14-.15l-.51.39a.57.57,0,0,1,.13-.08l-.6.25.14,0-.67.09h.09l-.67-.09h.07l-.59-.25.06,0-.51-.4.08.08-.39-.51a.41.41,0,0,1,.05.09l-.25-.59a.5.5,0,0,1,0,.13l-.09-.66v.06l.09-.66s0,0,0,.06l.25-.6,0,0,.39-.51,0,0,.51-.4-.06,0,.6-.26,0,0a2.61,2.61,0,0,0-1.5,1.14,2,2,0,0,0-.3.93,1.89,1.89,0,0,0,.05,1,2.46,2.46,0,0,0,1.15,1.49,2.53,2.53,0,0,0,1.92.26,3,3,0,0,0,1.22-.71,3,3,0,0,0,.68-1.2,2.88,2.88,0,0,0-2.05-3.5,1.91,1.91,0,0,0-.75-.09,4,4,0,0,0-.76.11,2.6,2.6,0,0,0-1,.55,2.83,2.83,0,0,0-.93,1.1,7.94,7.94,0,0,0-.45,1.14c-.13.42-.23.84-.39,1.24l.25-.59a2.72,2.72,0,0,1-.33.57l.39-.51a1,1,0,0,1-.22.23l.51-.39a1,1,0,0,1-.23.13l.6-.25a1.34,1.34,0,0,1-.38.1l.67-.09a1.28,1.28,0,0,1-.39,0l.66.09a1.25,1.25,0,0,1-.32-.08l.6.25a1,1,0,0,1-.24-.14l.51.39a.63.63,0,0,1-.12-.11l.39.5a.57.57,0,0,1-.08-.13l.25.6a1.24,1.24,0,0,1,0-.16l.09.66a.48.48,0,0,1,0-.17l-.09.66v0L282.53,159a3,3,0,0,0,1-.78,4.24,4.24,0,0,0,.91-1.65,4.13,4.13,0,0,0,.08-1.6,3.26,3.26,0,0,0-.53-1.51,2.42,2.42,0,0,0-2.49-1.2,2,2,0,0,0-.93.3,2.56,2.56,0,0,0-1.15,1.49,2.49,2.49,0,0,0,.25,1.93Z" transform="translate(-247.54 -13.48)"/><path d="M303.65,163l1.43-17.34a52.48,52.48,0,0,1,.8-7.82c.45-1.87,1.53-3.82,3.71-3.54l-2.5-2.5.63,13.71c.11,2.33.21,4.65.32,7,.1,2,.54,4,2.49,5,3.91,2.07,6.68-2.79,9.49-4.52,3-1.82,6.42-2.52,9.63-3.77s6.54-3.06,8.71-6a14,14,0,0,0,2-4.55,9.24,9.24,0,0,0,.29-.89c0-.11.21-.08,0-.12-1-.21.33.63.58.83l5.27,4.17c1.58,1.25,3.16,2.81,5.08,3.51,2.16.8,4.28.06,6.11-1.17s3.37-2.31,5.08-3.42A163.1,163.1,0,0,1,388,128.26l-3.76-2.16c.36,3.93,4.14,5.93,7.82,5.33s6-3.92,9.53-4.93,7.43-.78,10.95-2.06,6.47-3.48,7.54-7.12l-4.18,1.11,5.41,5c1.26,1.18,3.83.85,4.18-1.1a8.7,8.7,0,0,1,3.24-5.52,10.39,10.39,0,0,1,5.44-1.83c4.39-.46,9.44-.81,11.11-5.67a2.5,2.5,0,0,0-4.83-1.33.83.83,0,0,1-.29.52,2,2,0,0,1-.75.53,4.65,4.65,0,0,1-1,.33,14.76,14.76,0,0,1-1.47.31c-1.9.3-4.21.35-6.23.79A13.46,13.46,0,0,0,420.65,121l4.17-1.11-5.4-5a2.53,2.53,0,0,0-4.18,1.1c-.62,2.1-2.74,3.25-4.72,3.86-2.94.91-6.06.89-9,1.53a16,16,0,0,0-4.55,1.66c-1.28.72-2.41,1.67-3.64,2.47a4.84,4.84,0,0,1-2.81,1,2.51,2.51,0,0,1-1.06-.35c-.05,0-.21-.36-.19-.11a2.55,2.55,0,0,0-3.76-2.16,161.77,161.77,0,0,0-21.11,10.76q-2.53,1.53-5,3.17c-1.62,1.06-3.17,2.29-4.85,3.26-.53.31-.89.48-1.44.2a14,14,0,0,1-2-1.48l-4.9-3.87c-1.49-1.18-3-2.78-4.95-3.15a4.46,4.46,0,0,0-4.68,2.2c-.79,1.29-.9,2.79-1.5,4.15a7.77,7.77,0,0,1-2.3,2.79c-2.47,2-5.59,2.85-8.53,3.82-3.33,1.12-6.69,2.42-9.3,4.85-.65.61-1.21,1.33-1.92,1.88-.09.07-.64.33-.66.41,0-.1.94.58.41.14.46.39.37.41.38,0,.05-2.19-.2-4.44-.3-6.63l-.68-14.71a2.57,2.57,0,0,0-2.5-2.5c-3-.39-6,1.65-7.39,4.22-1.55,2.8-1.63,6.1-1.88,9.21L298.65,163a2.53,2.53,0,0,0,2.5,2.5,2.55,2.55,0,0,0,2.5-2.5Z" transform="translate(-247.54 -13.48)"/></g></svg>